<?xml version="1.0" encoding="UTF-8" standalone="no"?>
<!DOCTYPE svg PUBLIC "-//W3C//DTD SVG 1.1//EN"
 "http://www.w3.org/Graphics/SVG/1.1/DTD/svg11.dtd">
<!-- Generated by graphviz version 2.38.0 (20140413.2041)
 -->
<!-- Title: G Pages: 1 -->
<svg width="201pt" height="186pt"
 viewBox="0.00 0.00 201.00 186.00" xmlns="http://www.w3.org/2000/svg" xmlns:xlink="http://www.w3.org/1999/xlink">
<g id="graph0" class="graph" transform="scale(1 1) rotate(0) translate(4 182)">
<title>G</title>
<polygon fill="white" stroke="none" points="-4,4 -4,-182 197,-182 197,4 -4,4"/>
<g id="clust1" class="cluster"><title>cluster_Global</title>
<path fill="none" stroke="gray" d="M20,-8C20,-8 173,-8 173,-8 179,-8 185,-14 185,-20 185,-20 185,-158 185,-158 185,-164 179,-170 173,-170 173,-170 20,-170 20,-170 14,-170 8,-164 8,-158 8,-158 8,-20 8,-20 8,-14 14,-8 20,-8"/>
<text text-anchor="middle" x="96.5" y="-157.2" font-family="Times,serif" font-size="11.00" fill="gray">Global</text>
</g>
<g id="clust2" class="cluster"><title>cluster_\MoonPhaseCalculator</title>
<path fill="none" stroke="gray" d="M28,-16C28,-16 165,-16 165,-16 171,-16 177,-22 177,-28 177,-28 177,-130 177,-130 177,-136 171,-142 165,-142 165,-142 28,-142 28,-142 22,-142 16,-136 16,-130 16,-130 16,-28 16,-28 16,-22 22,-16 28,-16"/>
<text text-anchor="middle" x="96.5" y="-129.2" font-family="Times,serif" font-size="11.00" fill="gray">MoonPhaseCalculator</text>
</g>
<!-- \\MoonPhaseCalculator\\MoonPhaseCalculator -->
<g id="node1" class="node"><title>\\MoonPhaseCalculator\\MoonPhaseCalculator</title>
<polygon fill="none" stroke="black" points="169,-114 24,-114 24,-78 169,-78 169,-114"/>
<text text-anchor="middle" x="96.5" y="-93.2" font-family="Courier,monospace" font-size="11.00">MoonPhaseCalculator</text>
</g>
<!-- \\MoonPhaseCalculator\\MoonPhases -->
<g id="node2" class="node"><title>\\MoonPhaseCalculator\\MoonPhases</title>
<polygon fill="none" stroke="black" points="138.5,-60 54.5,-60 54.5,-24 138.5,-24 138.5,-60"/>
<text text-anchor="start" x="62.5" y="-45.2" font-family="Courier,monospace" font-size="11.00">«abstract»</text>
<text text-anchor="start" x="62.5" y="-33.2" font-family="Courier,monospace" font-size="11.00">MoonPhases</text>
</g>
</g>
</svg>
